<svg width="24" height="24" viewBox="0 0 24 24" fill="none" xmlns="http://www.w3.org/2000/svg">
<path d="M2.4375 10.6875C2.4375 10.4804 2.60539 10.3125 2.8125 10.3125H3.5625V9.5625C3.5625 9.35539 3.73039 9.1875 3.9375 9.1875C4.14461 9.1875 4.3125 9.35539 4.3125 9.5625V10.3125H5.0625C5.26961 10.3125 5.4375 10.4804 5.4375 10.6875C5.4375 10.8946 5.26961 11.0625 5.0625 11.0625H4.3125V11.8125C4.3125 12.0196 4.14461 12.1875 3.9375 12.1875C3.73039 12.1875 3.5625 12.0196 3.5625 11.8125V11.0625H2.8125C2.60539 11.0625 2.4375 10.8946 2.4375 10.6875Z" fill="#333333"/>
<path d="M12.375 10.6875C12.375 10.4804 12.5429 10.3125 12.75 10.3125H15C15.2071 10.3125 15.375 10.4804 15.375 10.6875C15.375 10.8946 15.2071 11.0625 15 11.0625H12.75C12.5429 11.0625 12.375 10.8946 12.375 10.6875Z" fill="#333333"/>
<path fill-rule="evenodd" clip-rule="evenodd" d="M6.1875 7.3125V6.5625C6.1875 6.14829 5.85171 5.8125 5.4375 5.8125H2.4375C2.02329 5.8125 1.6875 6.14829 1.6875 6.5625V7.3125H1.5C0.671573 7.3125 0 7.98407 0 8.8125V21.5625C0 22.3909 0.671573 23.0625 1.5 23.0625H16.3125C17.1409 23.0625 17.8125 22.3909 17.8125 21.5625V8.8125C17.8125 7.98407 17.1409 7.3125 16.3125 7.3125H16.125V6.5625C16.125 6.14829 15.7892 5.8125 15.375 5.8125H12.375C11.9608 5.8125 11.625 6.14829 11.625 6.5625V7.3125H6.1875ZM5.4375 6.5625H2.4375V7.3125H5.4375V6.5625ZM12.375 7.3125H15.375V6.5625H12.375V7.3125ZM1.5 8.0625C1.08579 8.0625 0.75 8.39829 0.75 8.8125V13.3125H17.0625V8.8125C17.0625 8.39829 16.7267 8.0625 16.3125 8.0625H1.5ZM17.0625 14.0625H0.75V21.5625C0.75 21.9767 1.08579 22.3125 1.5 22.3125H16.3125C16.7267 22.3125 17.0625 21.9767 17.0625 21.5625V14.0625Z" fill="#333333"/>
<path fill-rule="evenodd" clip-rule="evenodd" d="M17.0625 1.5V2.25H16.125C15.2966 2.25 14.625 2.92157 14.625 3.75V6.1875H15.375V3.75C15.375 3.33579 15.7108 3 16.125 3H22.5C22.9142 3 23.25 3.33579 23.25 3.75V9.1875H17.4199L17.4154 9.9375H23.25V16.5H17.3768L17.3724 17.25H23.25V21.5625C23.25 21.9767 22.9142 22.3125 22.5 22.3125H17.0859L16.3125 22.875L15.4476 22.9012C15.6511 23.0044 15.8813 23.0625 16.125 23.0625H22.5C23.3284 23.0625 24 22.3909 24 21.5625V3.75C24 2.92157 23.3284 2.25 22.5 2.25H21.5625V1.5C21.5625 1.08579 21.2267 0.75 20.8125 0.75H17.8125C17.3983 0.75 17.0625 1.08579 17.0625 1.5ZM20.8125 1.5H17.8125V2.25H20.8125V1.5Z" fill="#333333"/>
<path d="M19.3125 4.3125C19.5196 4.3125 19.6875 4.48039 19.6875 4.6875V5.4375H20.4375C20.6446 5.4375 20.8125 5.60539 20.8125 5.8125C20.8125 6.01961 20.6446 6.1875 20.4375 6.1875H19.6875V6.9375C19.6875 7.14461 19.5196 7.3125 19.3125 7.3125C19.1054 7.3125 18.9375 7.14461 18.9375 6.9375V6.1875H18.1875C17.9804 6.1875 17.8125 6.01961 17.8125 5.8125C17.8125 5.60539 17.9804 5.4375 18.1875 5.4375H18.9375V4.6875C18.9375 4.48039 19.1054 4.3125 19.3125 4.3125Z" fill="#333333"/>
</svg>
