<svg width="24" height="24" viewBox="0 0 24 24" fill="none" xmlns="http://www.w3.org/2000/svg">
<g clip-path="url(#clip0)">
<path d="M9.29032 0H0.774194C0.347226 0 0 0.347226 0 0.774194V2.32258C0 2.74955 0.347226 3.09677 0.774194 3.09677H1.54839V22.0645C1.54839 23.1317 2.41665 24 3.48387 24H6.58065C7.64787 24 8.51613 23.1317 8.51613 22.0645V3.09677H9.29032C9.71729 3.09677 10.0645 2.74955 10.0645 2.32258V0.774194C10.0645 0.347226 9.71729 0 9.29032 0ZM9.29032 2.32258H6.96774V3.09677H7.74194V22.0645C7.74194 22.7048 7.2209 23.2258 6.58065 23.2258H3.48387C2.84361 23.2258 2.32258 22.7048 2.32258 22.0645V3.09677H6.96774V2.32258H0.774194V0.774194H9.29032V2.32258Z" fill="#333333"/>
<path d="M5.80658 13.9355H4.25819C4.0444 13.9355 3.87109 14.1089 3.87109 14.3226C3.87109 14.5364 4.0444 14.7097 4.25819 14.7097H5.80658C6.02036 14.7097 6.19367 14.5364 6.19367 14.3226C6.19367 14.1089 6.02036 13.9355 5.80658 13.9355Z" fill="#333333"/>
<path d="M5.80658 16.2581H4.25819C4.0444 16.2581 3.87109 16.4314 3.87109 16.6452C3.87109 16.8589 4.0444 17.0322 4.25819 17.0322H5.80658C6.02036 17.0322 6.19367 16.8589 6.19367 16.6452C6.19367 16.4314 6.02036 16.2581 5.80658 16.2581Z" fill="#333333"/>
<path d="M5.80658 18.5807H4.25819C4.0444 18.5807 3.87109 18.754 3.87109 18.9678C3.87109 19.1816 4.0444 19.3549 4.25819 19.3549H5.80658C6.02036 19.3549 6.19367 19.1816 6.19367 18.9678C6.19367 18.754 6.02036 18.5807 5.80658 18.5807Z" fill="#333333"/>
<path d="M5.80658 20.9032H4.25819C4.0444 20.9032 3.87109 21.0765 3.87109 21.2903C3.87109 21.5041 4.0444 21.6774 4.25819 21.6774H5.80658C6.02036 21.6774 6.19367 21.5041 6.19367 21.2903C6.19367 21.0765 6.02036 20.9032 5.80658 20.9032Z" fill="#333333"/>
<path d="M5.80657 11.6129H4.2582C4.04441 11.6129 3.87109 11.7862 3.87109 12C3.87109 12.2138 4.04441 12.3871 4.2582 12.3871H5.80657C6.02036 12.3871 6.19367 12.2138 6.19367 12C6.19367 11.7862 6.02036 11.6129 5.80657 11.6129Z" fill="#333333"/>
<path d="M23.2259 3.09677C23.6528 3.09677 24.0001 2.74955 24.0001 2.32258V1.54839C24.0001 1.12142 23.6528 0.774194 23.2259 0.774194H22.3804C22.2202 0.324774 21.7944 0 21.2904 0H16.6452C16.1412 0 15.7154 0.324774 15.5552 0.774194H14.7097C14.2828 0.774194 13.9355 1.12142 13.9355 1.54839V2.32258C13.9355 2.74955 14.2828 3.09677 14.7097 3.09677H15.4839V10.0645C15.057 10.0645 14.7097 10.4117 14.7097 10.8387V12.3871C14.7097 12.8141 15.057 13.1613 15.4839 13.1613V14.7488C14.6017 14.9288 13.9355 15.7103 13.9355 16.6452V22.0645C13.9355 23.1317 14.8038 24 15.871 24H22.0646C23.1318 24 24.0001 23.1317 24.0001 22.0645V16.6452C24.0001 15.7107 23.3339 14.9288 22.4517 14.7488V13.1613C22.8786 13.1613 23.2259 12.8141 23.2259 12.3871V10.8387C23.2259 10.4117 22.8786 10.0645 22.4517 10.0645V3.09677H23.2259ZM22.4517 1.54839H23.2259V2.32258H22.4517V1.54839ZM16.2581 1.16129C16.2581 0.948 16.4319 0.774194 16.6452 0.774194H21.2904C21.5037 0.774194 21.6775 0.948 21.6775 1.16129V10.0645H16.2581V1.16129ZM14.7097 2.32258V1.54839H15.4839V2.32258H14.7097ZM23.2259 16.6452V22.0645C23.2259 22.7048 22.7048 23.2258 22.0646 23.2258H15.871C15.2308 23.2258 14.7097 22.7048 14.7097 22.0645V16.6452C14.7097 16.1412 15.0345 15.7154 15.4839 15.5551V16.6452V18.5806V21.6774C15.4839 22.1044 15.8312 22.4516 16.2581 22.4516H21.6775C22.1044 22.4516 22.4517 22.1044 22.4517 21.6774V18.5806V16.6452V15.5551C22.9011 15.7154 23.2259 16.1412 23.2259 16.6452ZM16.2581 21.6774V18.5806H17.8065V21.6774H16.2581ZM18.5807 21.6774V18.1935C18.5807 17.9803 18.7545 17.8065 18.9678 17.8065C19.1811 17.8065 19.3549 17.9803 19.3549 18.1935V21.6774H18.5807ZM20.1291 21.6774V18.5806H21.6775V21.6774H20.1291ZM22.4517 12.3871H20.9033V13.1613H21.6775V16.6452V17.8065H20.0579C19.8976 17.357 19.4718 17.0323 18.9678 17.0323C18.4638 17.0323 18.038 17.357 17.8777 17.8065H16.2581V16.6452V13.1613H20.9033V12.3871H15.4839V10.8387H22.4517V12.3871Z" fill="#333333"/>
</g>
<defs>
<clipPath id="clip0">
<rect width="24" height="24" fill="white"/>
</clipPath>
</defs>
</svg>
