<svg width="24" height="24" viewBox="0 0 24 24" fill="none" xmlns="http://www.w3.org/2000/svg">
<path d="M19.4832 8.73483C19.6296 8.88128 19.6296 9.11872 19.4832 9.26517L18.4879 10.2604L19.5519 10.9375C19.6479 10.9986 19.7109 11.0999 19.7234 11.213C19.7358 11.326 19.6962 11.4386 19.6158 11.5191L17.9585 13.1763C17.812 13.3228 17.5746 13.3228 17.4282 13.1763C17.2817 13.0299 17.2817 12.7925 17.4282 12.646L18.7549 11.3193L17.6909 10.6422C17.5949 10.5811 17.5318 10.4798 17.5194 10.3667C17.507 10.2537 17.5466 10.1411 17.627 10.0607L18.9529 8.73483C19.0993 8.58839 19.3367 8.58839 19.4832 8.73483Z" fill="#333333"/>
<path fill-rule="evenodd" clip-rule="evenodd" d="M17.25 0.375C17.25 0.167893 17.0821 0 16.875 0C16.6679 0 16.5 0.167893 16.5 0.375V2.0625H15.9375C15.5233 2.0625 15.1875 2.39829 15.1875 2.8125V5.25H14.8125C13.9841 5.25 13.3125 5.92157 13.3125 6.75V15C13.3125 15.8284 13.9841 16.5 14.8125 16.5H18.2812V18.6868C18.2812 19.58 19.0053 20.304 19.8984 20.304H21.7904C22.5965 20.304 23.25 20.9575 23.25 21.7636C23.25 22.578 22.5835 23.2349 21.7692 23.2231L12.1712 23.084C11.5563 23.0751 11.0625 22.574 11.0625 21.9591V13.0312C11.0625 11.9957 10.223 11.1562 9.1875 11.1562H7.6875C6.65197 11.1562 5.8125 11.9957 5.8125 13.0312V21.9963C5.8125 22.6001 5.33581 23.0963 4.73247 23.1204L3.04496 23.1879C2.40652 23.2134 1.875 22.7028 1.875 22.0638V6.1875H2.4375C2.85171 6.1875 3.1875 5.85171 3.1875 5.4375V2.4375C3.1875 2.02329 2.85171 1.6875 2.4375 1.6875H2.0625V0.375C2.0625 0.167893 1.89461 0 1.6875 0C1.48039 0 1.3125 0.167893 1.3125 0.375V1.6875H0.75C0.335786 1.6875 0 2.02329 0 2.4375V5.4375C0 5.85171 0.335786 6.1875 0.75 6.1875H1.125V22.0638C1.125 23.1287 2.01086 23.9799 3.07494 23.9373L4.76244 23.8698C5.76802 23.8296 6.5625 23.0027 6.5625 21.9963V13.0312C6.5625 12.4099 7.06618 11.9062 7.6875 11.9062H9.1875C9.80882 11.9062 10.3125 12.4099 10.3125 13.0312V21.9591C10.3125 22.984 11.1355 23.819 12.1603 23.8339L21.7584 23.973C22.9911 23.9909 24 22.9965 24 21.7636C24 20.5433 23.0107 19.554 21.7904 19.554H19.8984C19.4195 19.554 19.0312 19.1658 19.0312 18.6868V16.5H22.5C23.3284 16.5 24 15.8284 24 15V6.75C24 5.92157 23.3284 5.25 22.5 5.25H22.3125V2.8125C22.3125 2.39829 21.9767 2.0625 21.5625 2.0625H21V0.375C21 0.167893 20.8321 0 20.625 0C20.4179 0 20.25 0.167893 20.25 0.375V2.0625H17.25V0.375ZM0.75 2.4375H2.4375V5.4375H0.75L0.75 2.4375ZM15.9375 2.8125H21.5625V5.25H15.9375V2.8125ZM14.8125 6H22.5C22.9142 6 23.25 6.33579 23.25 6.75V15C23.25 15.4142 22.9142 15.75 22.5 15.75H14.8125C14.3983 15.75 14.0625 15.4142 14.0625 15V6.75C14.0625 6.33579 14.3983 6 14.8125 6Z" fill="#333333"/>
</svg>
