<svg width="144" height="32" viewBox="0 0 174 48" fill="none" xmlns="http://www.w3.org/2000/svg">
<path fill-rule="evenodd" clip-rule="evenodd" d="M23.7789 40.32C32.7091 40.32 39.9486 33.0133 39.9486 24C39.9486 14.9867 32.7091 7.68 23.7789 7.68C14.8486 7.68 7.60925 14.9867 7.60925 24C7.60925 33.0133 14.8486 40.32 23.7789 40.32ZM23.6287 9.19579H24.6299V12.6316H23.6287V9.19579ZM38.7471 23.6463V24.6568H35.343V23.6463H38.7471ZM12.9157 24.6568V23.6463H9.51156V24.6568H12.9157ZM23.6287 35.3684H24.6299V38.8042H23.6287V35.3684ZM31.3372 18.6182L29.5657 16.8334L23.5348 22.931L15.6575 14.9583L15.1612 15.4578L23.0397 23.4316L21.8618 24.6226L23.6333 26.4074L24.8072 25.2205L26.6957 27.1319L27.192 26.6324L25.3023 24.7199L31.3372 18.6182Z" fill="#009746"/>
<path fill-rule="evenodd" clip-rule="evenodd" d="M46.642 30.6189C43.7951 40.6548 34.6369 48 23.7789 48C10.6462 48 0 37.2548 0 24C0 10.7452 10.6462 0 23.7789 0C34.6733 0 43.8565 7.39454 46.6704 17.4821H49.9607C51.2878 17.4821 52.3636 18.5679 52.3636 19.9074V28.1937C52.3636 29.5331 51.2878 30.6189 49.9607 30.6189H46.642ZM46.7568 28.6989H49.4601C50.1237 28.6989 50.6616 28.156 50.6616 27.4863V20.5137C50.6616 19.844 50.1237 19.3011 49.4601 19.3011H46.7568V28.6989ZM45.3551 24C45.3551 36.027 35.6951 45.7768 23.7789 45.7768C11.8627 45.7768 2.20268 36.027 2.20268 24C2.20268 11.973 11.8627 2.22316 23.7789 2.22316C35.6951 2.22316 45.3551 11.973 45.3551 24Z" fill="#009746"/>
<path d="M127.995 4.75885H127.153L124.008 9.45639V4.75885H123.162V10.8548H124.008L127.153 6.15723V10.8548H127.995V4.75885Z" fill="#009746"/>
<path d="M126.552 4.05966C126.795 3.85311 126.916 3.58097 126.916 3.24324H126.259C126.259 3.44142 126.2 3.59493 126.083 3.70379C125.969 3.81264 125.81 3.86707 125.605 3.86707C125.392 3.86707 125.229 3.81264 125.118 3.70379C125.007 3.59214 124.951 3.43863 124.951 3.24324H124.289C124.289 3.57818 124.411 3.84893 124.653 4.05547C124.896 4.26202 125.213 4.36529 125.605 4.36529C125.997 4.36529 126.313 4.26342 126.552 4.05966Z" fill="#009746"/>
<path d="M61.998 8.92049C61.919 9.56525 61.669 10.0635 61.2479 10.4152C60.8298 10.7641 60.2727 10.9385 59.5768 10.9385C58.8224 10.9385 58.2171 10.6803 57.7609 10.164C57.3077 9.64759 57.0811 8.95677 57.0811 8.09151V7.50536C57.0811 6.93876 57.1863 6.44053 57.3969 6.01069C57.6103 5.58085 57.9115 5.25149 58.3004 5.02262C58.6893 4.79095 59.1397 4.67511 59.6514 4.67511C60.3298 4.67511 60.8736 4.85654 61.283 5.21939C61.6924 5.57945 61.9307 6.07907 61.998 6.71825H61.1514C61.0783 6.23259 60.919 5.8809 60.6733 5.66319C60.4306 5.44548 60.09 5.33662 59.6514 5.33662C59.1133 5.33662 58.6908 5.52642 58.3838 5.90602C58.0797 6.28562 57.9276 6.82571 57.9276 7.5263V8.11663C57.9276 8.77814 58.0724 9.30428 58.3618 9.69504C58.6513 10.0858 59.0563 10.2812 59.5768 10.2812C60.0447 10.2812 60.4029 10.1807 60.6514 9.97974C60.9029 9.77598 61.0696 9.4229 61.1514 8.92049H61.998Z" fill="#009746"/>
<path d="M68.9082 8.03708H66.1406V10.1974H69.3556V10.8548H65.2984V4.75885H69.3118V5.42036H66.1406V7.37976H68.9082V8.03708Z" fill="#009746"/>
<path fill-rule="evenodd" clip-rule="evenodd" d="M73.393 10.8548V8.46832H74.8974C75.6197 8.46832 76.1738 8.30922 76.5598 7.99103C76.9487 7.67004 77.1431 7.21369 77.1431 6.62196C77.1431 6.06093 76.9443 5.61016 76.5466 5.26963C76.1518 4.92911 75.605 4.75885 74.9062 4.75885H72.5508V10.8548H73.393ZM74.9062 7.811H73.393V5.42036H74.9544C75.3726 5.42873 75.7015 5.54177 75.9413 5.75949C76.1811 5.9772 76.301 6.26748 76.301 6.63033C76.301 7.01272 76.1811 7.3058 75.9413 7.50955C75.7015 7.71052 75.3565 7.811 74.9062 7.811Z" fill="#009746"/>
<path fill-rule="evenodd" clip-rule="evenodd" d="M80.3646 10.8548V4.75885H82.4524C83.1454 4.75885 83.6659 4.89562 84.0139 5.16915C84.3648 5.44269 84.5402 5.84741 84.5402 6.38331C84.5402 6.66801 84.4555 6.92061 84.2859 7.14112C84.1162 7.35883 83.8853 7.52769 83.5928 7.64771C83.9379 7.73982 84.2098 7.91567 84.4087 8.17525C84.6104 8.43203 84.7113 8.73906 84.7113 9.09633C84.7113 9.6434 84.5256 10.0732 84.1543 10.3859C83.7829 10.6985 83.258 10.8548 82.5796 10.8548H80.3646ZM81.2068 8.00359V10.1974H82.5972C82.989 10.1974 83.2975 10.1012 83.5227 9.90856C83.7507 9.71318 83.8648 9.44523 83.8648 9.10471C83.8648 8.37063 83.4466 8.00359 82.6103 8.00359H81.2068ZM81.2068 7.35883H82.4788C82.8472 7.35883 83.1411 7.27091 83.3604 7.09506C83.5826 6.91922 83.6937 6.68057 83.6937 6.37913C83.6937 6.04419 83.5914 5.80135 83.3867 5.65063C83.182 5.49712 82.8706 5.42036 82.4524 5.42036H81.2068V7.35883Z" fill="#009746"/>
<path d="M92.9769 4.75885H92.1348L88.9899 9.45639V4.75885H88.1434V10.8548H88.9899L92.1348 6.15723V10.8548H92.9769V4.75885Z" fill="#009746"/>
<path d="M101.357 8.92049C101.278 9.56525 101.028 10.0635 100.606 10.4152C100.188 10.7641 99.6313 10.9385 98.9354 10.9385C98.1809 10.9385 97.5757 10.6803 97.1195 10.164C96.6663 9.64759 96.4396 8.95677 96.4396 8.09151V7.50536C96.4396 6.93876 96.5449 6.44053 96.7554 6.01069C96.9689 5.58085 97.2701 5.25149 97.659 5.02262C98.0479 4.79095 98.4982 4.67511 99.0099 4.67511C99.6883 4.67511 100.232 4.85654 100.642 5.21939C101.051 5.57945 101.289 6.07907 101.357 6.71825H100.51C100.437 6.23259 100.278 5.8809 100.032 5.66319C99.7892 5.44548 99.4485 5.33662 99.0099 5.33662C98.4719 5.33662 98.0494 5.52642 97.7423 5.90602C97.4382 6.28562 97.2862 6.82571 97.2862 7.5263V8.11663C97.2862 8.77814 97.4309 9.30428 97.7204 9.69504C98.0099 10.0858 98.4149 10.2812 98.9354 10.2812C99.4032 10.2812 99.7614 10.1807 100.01 9.97974C100.261 9.77598 100.428 9.4229 100.51 8.92049H101.357Z" fill="#009746"/>
<path d="M108.719 10.8548H109.565V4.75885H108.719V7.37976H105.499V4.75885H104.657V10.8548H105.499V8.03708H108.719V10.8548Z" fill="#009746"/>
<path fill-rule="evenodd" clip-rule="evenodd" d="M114.089 7.24578H115.677C116.344 7.25416 116.864 7.41744 117.239 7.73564C117.613 8.05383 117.8 8.48646 117.8 9.03353C117.8 9.58339 117.611 10.0216 117.234 10.3482C116.857 10.6747 116.342 10.8436 115.69 10.8548H113.247V4.75885H114.089V7.24578ZM114.089 7.90729V10.1974H115.629C116.047 10.1974 116.372 10.0914 116.603 9.87926C116.836 9.66713 116.953 9.38243 116.953 9.02516C116.953 8.68184 116.841 8.4111 116.616 8.21293C116.393 8.01475 116.076 7.91288 115.664 7.90729H114.089Z" fill="#009746"/>
<path d="M119.414 10.8548H118.572V4.75885H119.414V10.8548Z" fill="#009746"/>
<path d="M136.079 4.75885H136.925V10.1974H140.075V4.75885H140.917V10.1807H141.588L141.509 12.3243H140.75V10.8548H136.079V4.75885Z" fill="#009746"/>
<path d="M145.612 8.03708H148.38V7.37976H145.612V5.42036H148.783V4.75885H144.77V10.8548H148.827V10.1974H145.612V8.03708Z" fill="#009746"/>
<path d="M156.93 10.8548H156.084V8.03708H152.864V10.8548H152.022V4.75885H152.864V7.37976H156.084V4.75885H156.93V10.8548Z" fill="#009746"/>
<path d="M162.801 5.42036H164.854V4.75885H159.915V5.42036H161.963V10.8548H162.801V5.42036Z" fill="#009746"/>
<path fill-rule="evenodd" clip-rule="evenodd" d="M168.79 8.46832V10.8548H167.948V4.75885H170.304C171.002 4.75885 171.549 4.92911 171.944 5.26963C172.342 5.61016 172.541 6.06093 172.541 6.62196C172.541 7.21369 172.346 7.67004 171.957 7.99103C171.571 8.30922 171.017 8.46832 170.295 8.46832H168.79ZM168.79 7.811H170.304C170.754 7.811 171.099 7.71052 171.339 7.50955C171.579 7.3058 171.698 7.01272 171.698 6.63033C171.698 6.26748 171.579 5.9772 171.339 5.75949C171.099 5.54177 170.77 5.42873 170.352 5.42036H168.79V7.811Z" fill="#009746"/>
<path d="M97.4443 28.5076C98.2399 27.8235 98.6807 26.886 98.7669 25.6951H96.4865C96.4358 26.3691 96.2356 26.8682 95.886 27.1926C95.5414 27.5118 95.0169 27.6715 94.3125 27.6715C93.5321 27.6715 92.9595 27.3953 92.5946 26.8429C92.2348 26.2905 92.0549 25.4164 92.0549 24.2204V23.3843C92.065 22.239 92.2576 21.3953 92.6326 20.853C93.0127 20.3057 93.5828 20.0321 94.3429 20.0321C95.0422 20.0321 95.5617 20.1943 95.9012 20.5186C96.2458 20.8378 96.446 21.3547 96.5017 22.0693H98.7821C98.6605 20.8328 98.2095 19.8725 97.4291 19.1883C96.6487 18.5042 95.6199 18.1622 94.3429 18.1622C93.4206 18.1622 92.6098 18.3801 91.9105 18.8159C91.2162 19.2466 90.6816 19.8674 90.3066 20.6782C89.9316 21.489 89.7441 22.4265 89.7441 23.4907V24.1672C89.7441 25.8345 90.1495 27.147 90.9603 28.1047C91.7762 29.0574 92.8936 29.5338 94.3125 29.5338C95.6098 29.5338 96.6537 29.1917 97.4443 28.5076Z" fill="#009746"/>
<path d="M67.913 18.3142L66.4231 26.1892L64.6064 18.3142H62.6757L60.8514 26.174L59.3539 18.3142H57.0811L59.5363 29.3818H61.8319L63.6334 21.978L65.435 29.3818H67.7306L70.1858 18.3142H67.913Z" fill="#009746"/>
<path fill-rule="evenodd" clip-rule="evenodd" d="M73.3404 27.1014H77.3387L78.1064 29.3818H80.5312L76.3885 18.3142H74.2753L70.1554 29.3818H72.5802L73.3404 27.1014ZM76.723 25.2542H73.9561L75.3319 21.1115L76.723 25.2542Z" fill="#009746"/>
<path d="M88.984 20.1613H85.5938V29.3818H83.3133V20.1613H79.9688V18.3142H88.984V20.1613Z" fill="#009746"/>
<path d="M109.272 29.3818H106.992V24.6385H102.545V29.3818H100.264V18.3142H102.545V22.799H106.992V18.3142H109.272V29.3818Z" fill="#009746"/>
<path d="M111.119 25.5279H115.399V23.7568H111.119V25.5279Z" fill="#009746"/>
<path d="M123.965 24.5853H119.587V27.5498H124.726V29.3818H117.307V18.3142H124.71V20.1613H119.587V22.799H123.965V24.5853Z" fill="#009746"/>
<path d="M132.099 18.3142L130.024 22.1301L127.948 18.3142H125.326L128.549 23.8024L125.242 29.3818H127.895L130.024 25.5051L132.152 29.3818H134.805L131.498 23.8024L134.721 18.3142H132.099Z" fill="#009746"/>
<path fill-rule="evenodd" clip-rule="evenodd" d="M138.241 25.4823V29.3818H135.96V18.3142H140.278C141.109 18.3142 141.839 18.4662 142.467 18.7703C143.101 19.0743 143.587 19.5076 143.927 20.0701C144.266 20.6275 144.436 21.2635 144.436 21.978C144.436 23.0625 144.063 23.9189 143.318 24.5473C142.579 25.1706 141.552 25.4823 140.24 25.4823H138.241ZM138.241 23.6351H140.278C140.881 23.6351 141.34 23.4932 141.654 23.2095C141.973 22.9257 142.133 22.5203 142.133 21.9932C142.133 21.451 141.973 21.0127 141.654 20.6782C141.334 20.3438 140.894 20.1715 140.331 20.1613H138.241V23.6351Z" fill="#009746"/>
<path d="M148.29 24.5853H152.668V22.799H148.29V20.1613H153.413V18.3142H146.009V29.3818H153.428V27.5498H148.29V24.5853Z" fill="#009746"/>
<path fill-rule="evenodd" clip-rule="evenodd" d="M158.863 25.3302H157.046V29.3818H154.766V18.3142H158.878C160.186 18.3142 161.194 18.6056 161.904 19.1883C162.613 19.7711 162.968 20.5946 162.968 21.6588C162.968 22.4139 162.803 23.0448 162.474 23.5515C162.15 24.0532 161.655 24.4535 160.992 24.7525L163.386 29.2753V29.3818H160.938L158.863 25.3302ZM157.046 23.4831H158.886C159.459 23.4831 159.902 23.3387 160.216 23.0498C160.53 22.7559 160.688 22.353 160.688 21.8412C160.688 21.3193 160.538 20.9088 160.239 20.6098C159.945 20.3108 159.492 20.1613 158.878 20.1613H157.046V23.4831Z" fill="#009746"/>
<path d="M169.269 20.1613H172.66V18.3142H163.644V20.1613H166.989V29.3818H169.269V20.1613Z" fill="#009746"/>
<path d="M99.9753 41.6345C99.0135 41.3677 98.3126 41.0408 97.8726 40.6537C97.4364 40.2629 97.2183 39.7819 97.2183 39.2107C97.2183 38.5644 97.4851 38.0308 98.0186 37.6099C98.556 37.1853 99.253 36.973 100.11 36.973C100.694 36.973 101.214 37.0819 101.669 37.2999C102.129 37.5178 102.483 37.8185 102.732 38.2018C102.985 38.5851 103.112 39.004 103.112 39.4587H101.985C101.985 38.9627 101.821 38.5738 101.494 38.292C101.167 38.0064 100.705 37.8636 100.11 37.8636C99.5567 37.8636 99.1245 37.9819 98.813 38.2187C98.5053 38.4517 98.3515 38.7767 98.3515 39.1938C98.3515 39.5283 98.4975 39.812 98.7896 40.0449C99.0855 40.2742 99.5859 40.4846 100.291 40.6763C100.999 40.8679 101.552 41.0802 101.95 41.3132C102.351 41.5424 102.647 41.8111 102.838 42.1192C103.032 42.4274 103.13 42.79 103.13 43.2071C103.13 43.8722 102.861 44.4058 102.323 44.8079C101.786 45.2062 101.068 45.4054 100.168 45.4054C99.584 45.4054 99.0388 45.2983 98.5326 45.0841C98.0264 44.8662 97.635 44.5693 97.3585 44.1935C97.0859 43.8177 96.9496 43.3912 96.9496 42.914H98.077C98.077 43.41 98.2659 43.8027 98.6436 44.0921C99.0252 44.3777 99.5334 44.5205 100.168 44.5205C100.76 44.5205 101.214 44.404 101.529 44.171C101.845 43.938 102.002 43.6205 102.002 43.2184C102.002 42.8163 101.856 42.5063 101.564 42.2883C101.272 42.0666 100.742 41.8487 99.9753 41.6345Z" fill="#009746"/>
<path d="M59.2423 41.4767L58.2026 42.5194V45.2927H57.0811V37.0857H58.2026V41.1441L61.9818 37.0857H63.3369L59.99 40.7101L63.5998 45.2927H62.2563L59.2423 41.4767Z" fill="#009746"/>
<path fill-rule="evenodd" clip-rule="evenodd" d="M73.6046 41.9727H71.607V45.2927H70.4796V37.0857H73.2951C74.253 37.0857 74.989 37.2961 75.503 37.717C76.0209 38.1379 76.2799 38.7504 76.2799 39.5546C76.2799 40.0656 76.1358 40.5109 75.8476 40.8904C75.5634 41.27 75.1662 41.5537 74.656 41.7416L76.6537 45.225V45.2927H75.4504L73.6046 41.9727ZM71.607 41.0877H73.3301C73.887 41.0877 74.3289 40.9487 74.656 40.6706C74.987 40.3925 75.1525 40.0205 75.1525 39.5546C75.1525 39.0473 74.9948 38.6583 74.6794 38.3878C74.3679 38.1172 73.9162 37.9801 73.3243 37.9763H71.607V41.0877Z" fill="#009746"/>
<path fill-rule="evenodd" clip-rule="evenodd" d="M84.8945 43.1507H88.4576L89.2695 45.2927H90.4202L87.1667 37.0857H86.1854L82.9378 45.2927H84.0943L84.8945 43.1507ZM88.1247 42.2602H85.2333L86.6761 38.4216L88.1247 42.2602Z" fill="#009746"/>
<path d="M115.886 45.2927H117.013V37.0857H115.897V43.4382L111.604 37.0857H110.477V45.2927H111.604V38.9683L115.886 45.2927Z" fill="#009746"/>
<path fill-rule="evenodd" clip-rule="evenodd" d="M131.451 41.4541C131.451 42.2583 131.311 42.961 131.031 43.5622C130.75 44.1597 130.353 44.6163 129.839 44.9319C129.325 45.2476 128.725 45.4054 128.04 45.4054C127.37 45.4054 126.776 45.2476 126.258 44.9319C125.741 44.6125 125.338 44.1597 125.049 43.5735C124.765 42.9835 124.619 42.3015 124.611 41.5274V40.9355C124.611 40.1464 124.753 39.4493 125.038 38.8443C125.322 38.2393 125.723 37.7771 126.241 37.4577C126.763 37.1346 127.359 36.973 128.028 36.973C128.71 36.973 129.309 37.1327 129.827 37.4521C130.349 37.7677 130.75 38.2281 131.031 38.8331C131.311 39.4343 131.451 40.1351 131.451 40.9355V41.4541ZM130.336 40.9243C130.336 39.951 130.133 39.2051 129.728 38.6865C129.323 38.1642 128.757 37.903 128.028 37.903C127.32 37.903 126.761 38.1642 126.352 38.6865C125.947 39.2051 125.739 39.9266 125.727 40.851V41.4541C125.727 42.3973 125.931 43.1395 126.34 43.6806C126.753 44.2179 127.32 44.4866 128.04 44.4866C128.764 44.4866 129.325 44.233 129.722 43.7257C130.119 43.2146 130.324 42.4837 130.336 41.533V40.9243Z" fill="#009746"/>
<path fill-rule="evenodd" clip-rule="evenodd" d="M139.038 37.0857V45.2927H141.392C142.155 45.2852 142.823 45.1255 143.395 44.8136C143.972 44.5017 144.414 44.0545 144.721 43.472C145.033 42.8896 145.189 42.2113 145.189 41.4372V40.913C145.185 40.1577 145.027 39.4888 144.715 38.9063C144.408 38.3239 143.97 37.8748 143.401 37.5592C142.833 37.2435 142.178 37.0857 141.439 37.0857H139.038ZM140.159 44.4077V37.9763H141.468C142.301 37.9838 142.944 38.2469 143.395 38.7654C143.851 39.2802 144.079 40.0036 144.079 40.9355V41.4147C144.079 42.3729 143.837 43.1113 143.354 43.6299C142.875 44.1484 142.204 44.4077 141.339 44.4077H140.159Z" fill="#009746"/>
<path fill-rule="evenodd" clip-rule="evenodd" d="M157.36 43.1507H153.797L152.997 45.2927H151.841L155.088 37.0857H156.07L159.323 45.2927H158.172L157.36 43.1507ZM154.136 42.2602H157.028L155.579 38.4216L154.136 42.2602Z" fill="#009746"/>
<path fill-rule="evenodd" clip-rule="evenodd" d="M167.494 41.9727H169.492L171.337 45.2927H172.541V45.225L170.543 41.7416C171.053 41.5537 171.45 41.27 171.734 40.8904C172.023 40.5109 172.167 40.0656 172.167 39.5546C172.167 38.7504 171.908 38.1379 171.39 37.717C170.876 37.2961 170.14 37.0857 169.182 37.0857H166.366V45.2927H167.494V41.9727ZM169.217 41.0877H167.494V37.9763H169.211C169.803 37.9801 170.255 38.1172 170.566 38.3878C170.882 38.6583 171.039 39.0473 171.039 39.5546C171.039 40.0205 170.874 40.3925 170.543 40.6706C170.216 40.9487 169.774 41.0877 169.217 41.0877Z" fill="#009746"/>
<path d="M173.838 35.027H55.7838V34.3784H173.838V35.027Z" fill="#009746"/>
<path d="M55.7838 14.2703H173.838V13.6216H55.7838V14.2703Z" fill="#009746"/>
<path d="M97.4452 28.5075C98.2408 27.8234 98.6817 26.8859 98.7678 25.695H96.4874C96.4368 26.369 96.2366 26.8682 95.8869 27.1925C95.5423 27.5118 95.0178 27.6714 94.3134 27.6714C93.533 27.6714 92.9604 27.3952 92.5955 26.8429C92.2357 26.2905 92.0558 25.4163 92.0558 24.2204V23.3842C92.066 22.239 92.2585 21.3952 92.6335 20.853C93.0136 20.3057 93.5837 20.032 94.3439 20.032C95.0432 20.032 95.5626 20.1942 95.9021 20.5185C96.2467 20.8378 96.4469 21.3547 96.5026 22.0692H98.783C98.6614 20.8327 98.2104 19.8724 97.43 19.1883C96.6496 18.5042 95.6209 18.1621 94.3439 18.1621C93.4216 18.1621 92.6107 18.38 91.9114 18.8158C91.2172 19.2466 90.6825 19.8673 90.3075 20.6782C89.9325 21.489 89.745 22.4265 89.745 23.4907V24.1672C89.745 25.8344 90.1504 27.1469 90.9613 28.1047C91.7771 29.0574 92.8945 29.5337 94.3134 29.5337C95.6107 29.5337 96.6547 29.1917 97.4452 28.5075Z" fill="#003E21"/>
<path d="M67.914 18.3141L66.4241 26.1891L64.6074 18.3141H62.6766L60.8523 26.1739L59.3548 18.3141H57.082L59.5373 29.3817H61.8329L63.6344 21.978L65.4359 29.3817H67.7315L70.1868 18.3141H67.914Z" fill="#003E21"/>
<path fill-rule="evenodd" clip-rule="evenodd" d="M73.3413 27.1013H77.3396L78.1074 29.3817H80.5322L76.3895 18.3141H74.2763L70.1564 29.3817H72.5812L73.3413 27.1013ZM76.7239 25.2542H73.957L75.3329 21.1114L76.7239 25.2542Z" fill="#003E21"/>
<path d="M88.9849 20.1613H85.5947V29.3817H83.3143V20.1613H79.9697V18.3141H88.9849V20.1613Z" fill="#003E21"/>
<path d="M109.273 29.3817H106.993V24.6385H102.546V29.3817H100.265V18.3141H102.546V22.7989H106.993V18.3141H109.273V29.3817Z" fill="#003E21"/>
<path d="M111.12 25.5278H115.4V23.7567H111.12V25.5278Z" fill="#003E21"/>
<path d="M123.966 24.5853H119.588V27.5498H124.726V29.3817H117.308V18.3141H124.711V20.1613H119.588V22.7989H123.966V24.5853Z" fill="#003E21"/>
<path d="M132.1 18.3141L130.025 22.13L127.949 18.3141H125.327L128.55 23.8023L125.243 29.3817H127.896L130.025 25.505L132.153 29.3817H134.806L131.499 23.8023L134.722 18.3141H132.1Z" fill="#003E21"/>
<path fill-rule="evenodd" clip-rule="evenodd" d="M138.242 25.4822V29.3817H135.961V18.3141H140.279C141.11 18.3141 141.84 18.4662 142.468 18.7702C143.101 19.0743 143.588 19.5075 143.927 20.07C144.267 20.6275 144.437 21.2635 144.437 21.978C144.437 23.0624 144.064 23.9189 143.319 24.5472C142.579 25.1706 141.553 25.4822 140.241 25.4822H138.242ZM138.242 23.6351H140.279C140.882 23.6351 141.34 23.4932 141.655 23.2094C141.974 22.9256 142.134 22.5202 142.134 21.9932C142.134 21.451 141.974 21.0126 141.655 20.6782C141.335 20.3437 140.895 20.1714 140.332 20.1613H138.242V23.6351Z" fill="#003E21"/>
<path d="M148.291 24.5853H152.669V22.7989H148.291V20.1613H153.414V18.3141H146.01V29.3817H153.429V27.5498H148.291V24.5853Z" fill="#003E21"/>
<path fill-rule="evenodd" clip-rule="evenodd" d="M158.864 25.3302H157.047V29.3817H154.767V18.3141H158.879C160.187 18.3141 161.195 18.6055 161.905 19.1883C162.614 19.7711 162.969 20.5945 162.969 21.6587C162.969 22.4138 162.804 23.0447 162.475 23.5515C162.15 24.0532 161.656 24.4535 160.993 24.7525L163.387 29.2753V29.3817H160.939L158.864 25.3302ZM157.047 23.4831H158.887C159.46 23.4831 159.903 23.3386 160.217 23.0498C160.531 22.7559 160.688 22.353 160.688 21.8412C160.688 21.3192 160.539 20.9087 160.24 20.6097C159.946 20.3108 159.493 20.1613 158.879 20.1613H157.047V23.4831Z" fill="#003E21"/>
<path d="M169.27 20.1613H172.661V18.3141H163.645V20.1613H166.99V29.3817H169.27V20.1613Z" fill="#003E21"/>
<path d="M99.9763 41.6345C99.0145 41.3677 98.3135 41.0408 97.8735 40.6538C97.4374 40.2629 97.2193 39.782 97.2193 39.2108C97.2193 38.5644 97.486 38.0308 98.0195 37.61C98.5569 37.1853 99.2539 36.973 100.111 36.973C100.695 36.973 101.215 37.082 101.67 37.2999C102.13 37.5179 102.484 37.8185 102.733 38.2018C102.986 38.5851 103.113 39.0041 103.113 39.4588H101.986C101.986 38.9628 101.822 38.5738 101.495 38.292C101.168 38.0064 100.706 37.8636 100.111 37.8636C99.5577 37.8636 99.1254 37.982 98.8139 38.2187C98.5063 38.4517 98.3525 38.7768 98.3525 39.1939C98.3525 39.5283 98.4985 39.812 98.7905 40.045C99.0865 40.2742 99.5869 40.4847 100.292 40.6763C101 40.868 101.553 41.0803 101.951 41.3132C102.352 41.5425 102.648 41.8111 102.838 42.1193C103.033 42.4274 103.13 42.79 103.13 43.2072C103.13 43.8723 102.862 44.4059 102.324 44.808C101.787 45.2063 101.069 45.4055 100.169 45.4055C99.5849 45.4055 99.0398 45.2984 98.5335 45.0842C98.0273 44.8662 97.636 44.5694 97.3595 44.1936C97.0869 43.8178 96.9506 43.3913 96.9506 42.9141H98.0779C98.0779 43.4101 98.2668 43.8028 98.6445 44.0921C99.0261 44.3777 99.5343 44.5205 100.169 44.5205C100.761 44.5205 101.215 44.404 101.53 44.171C101.845 43.938 102.003 43.6205 102.003 43.2184C102.003 42.8164 101.857 42.5063 101.565 42.2884C101.273 42.0667 100.743 41.8487 99.9763 41.6345Z" fill="#003E21"/>
<path d="M59.2432 41.4767L58.2035 42.5195V45.2927H57.082V37.0858H58.2035V41.1441L61.9827 37.0858H63.3379L59.9909 40.7101L63.6007 45.2927H62.2573L59.2432 41.4767Z" fill="#003E21"/>
<path fill-rule="evenodd" clip-rule="evenodd" d="M73.6056 41.9727H71.6079V45.2927H70.4806V37.0858H73.296C74.2539 37.0858 74.9899 37.2962 75.5039 37.7171C76.0219 38.1379 76.2808 38.7504 76.2808 39.5546C76.2808 40.0657 76.1367 40.511 75.8486 40.8905C75.5643 41.27 75.1671 41.5537 74.657 41.7416L76.6546 45.2251V45.2927H75.4514L73.6056 41.9727ZM71.6079 41.0878H73.331C73.8879 41.0878 74.3299 40.9487 74.657 40.6707C74.988 40.3926 75.1535 40.0206 75.1535 39.5546C75.1535 39.0473 74.9958 38.6584 74.6803 38.3878C74.3688 38.1173 73.9171 37.9801 73.3252 37.9763H71.6079V41.0878Z" fill="#003E21"/>
<path fill-rule="evenodd" clip-rule="evenodd" d="M84.8955 43.1508H88.4586L89.2705 45.2927H90.4212L87.1677 37.0858H86.1864L82.9387 45.2927H84.0953L84.8955 43.1508ZM88.1256 42.2602H85.2343L86.677 38.4216L88.1256 42.2602Z" fill="#003E21"/>
<path d="M115.887 45.2927H117.014V37.0858H115.898V43.4383L111.605 37.0858H110.478V45.2927H111.605V38.9684L115.887 45.2927Z" fill="#003E21"/>
<path fill-rule="evenodd" clip-rule="evenodd" d="M131.452 41.4542C131.452 42.2583 131.312 42.961 131.032 43.5623C130.751 44.1598 130.354 44.6163 129.84 44.932C129.326 45.2476 128.726 45.4055 128.041 45.4055C127.371 45.4055 126.777 45.2476 126.259 44.932C125.741 44.6126 125.338 44.1598 125.05 43.5735C124.766 42.9836 124.62 42.3015 124.612 41.5274V40.9356C124.612 40.1465 124.754 39.4494 125.039 38.8444C125.323 38.2394 125.724 37.7772 126.242 37.4578C126.764 37.1346 127.359 36.973 128.029 36.973C128.711 36.973 129.31 37.1327 129.828 37.4521C130.35 37.7678 130.751 38.2281 131.032 38.8331C131.312 39.4344 131.452 40.1352 131.452 40.9356V41.4542ZM130.336 40.9243C130.336 39.9511 130.134 39.2051 129.729 38.6866C129.324 38.1642 128.757 37.9031 128.029 37.9031C127.321 37.9031 126.762 38.1642 126.353 38.6866C125.948 39.2051 125.74 39.9266 125.728 40.851V41.4542C125.728 42.3974 125.932 43.1395 126.341 43.6806C126.754 44.218 127.321 44.4867 128.041 44.4867C128.765 44.4867 129.326 44.233 129.723 43.7257C130.12 43.2147 130.325 42.4838 130.336 41.5331V40.9243Z" fill="#003E21"/>
<path fill-rule="evenodd" clip-rule="evenodd" d="M139.039 37.0858V45.2927H141.393C142.156 45.2852 142.824 45.1255 143.396 44.8136C143.973 44.5017 144.415 44.0545 144.722 43.4721C145.034 42.8896 145.189 42.2114 145.189 41.4373V40.913C145.186 40.1577 145.028 39.4888 144.716 38.9064C144.409 38.3239 143.971 37.8749 143.402 37.5592C142.834 37.2436 142.179 37.0858 141.439 37.0858H139.039ZM140.16 44.4078V37.9763H141.469C142.302 37.9839 142.945 38.2469 143.396 38.7655C143.852 39.2803 144.08 40.0037 144.08 40.9356V41.4147C144.08 42.3729 143.838 43.1113 143.355 43.6299C142.876 44.1485 142.205 44.4078 141.34 44.4078H140.16Z" fill="#003E21"/>
<path fill-rule="evenodd" clip-rule="evenodd" d="M157.361 43.1508H153.798L152.998 45.2927H151.842L155.089 37.0858H156.071L159.324 45.2927H158.173L157.361 43.1508ZM154.137 42.2602H157.028L155.58 38.4216L154.137 42.2602Z" fill="#003E21"/>
<path fill-rule="evenodd" clip-rule="evenodd" d="M167.495 41.9727H169.492L171.338 45.2927H172.541V45.2251L170.544 41.7416C171.054 41.5537 171.451 41.27 171.735 40.8905C172.024 40.511 172.168 40.0657 172.168 39.5546C172.168 38.7504 171.909 38.1379 171.391 37.7171C170.877 37.2962 170.141 37.0858 169.183 37.0858H166.367V45.2927H167.495V41.9727ZM169.218 41.0878H167.495V37.9763H169.212C169.804 37.9801 170.256 38.1173 170.567 38.3878C170.883 38.6584 171.04 39.0473 171.04 39.5546C171.04 40.0206 170.875 40.3926 170.544 40.6707C170.217 40.9487 169.775 41.0878 169.218 41.0878Z" fill="#003E21"/>
<path d="M127.996 4.75889H127.154L124.009 9.45644V4.75889H123.163V10.8548H124.009L127.154 6.15727V10.8548H127.996V4.75889Z" fill="#003E21"/>
<path d="M126.553 4.0597C126.796 3.85316 126.917 3.58102 126.917 3.24329H126.259C126.259 3.44146 126.201 3.59497 126.084 3.70383C125.97 3.81269 125.811 3.86711 125.606 3.86711C125.393 3.86711 125.23 3.81269 125.119 3.70383C125.008 3.59218 124.952 3.43867 124.952 3.24329H124.29C124.29 3.57823 124.411 3.84897 124.654 4.05552C124.897 4.26206 125.214 4.36534 125.606 4.36534C125.998 4.36534 126.314 4.26346 126.553 4.0597Z" fill="#003E21"/>
<path d="M61.9989 8.92053C61.92 9.56529 61.67 10.0635 61.2489 10.4152C60.8307 10.7641 60.2737 10.9385 59.5778 10.9385C58.8233 10.9385 58.218 10.6804 57.7619 10.164C57.3087 9.64763 57.082 8.95682 57.082 8.09155V7.50541C57.082 6.9388 57.1873 6.44057 57.3978 6.01073C57.6113 5.58089 57.9125 5.25153 58.3014 5.02266C58.6903 4.79099 59.1406 4.67516 59.6523 4.67516C60.3307 4.67516 60.8746 4.85658 61.284 5.21944C61.6933 5.5795 61.9317 6.07912 61.9989 6.7183H61.1524C61.0793 6.23263 60.9199 5.88094 60.6743 5.66323C60.4316 5.44552 60.0909 5.33667 59.6523 5.33667C59.1143 5.33667 58.6918 5.52647 58.3847 5.90607C58.0806 6.28566 57.9286 6.82576 57.9286 7.52634V8.11667C57.9286 8.77818 58.0733 9.30432 58.3628 9.69508C58.6523 10.0858 59.0573 10.2812 59.5778 10.2812C60.0456 10.2812 60.4038 10.1807 60.6524 9.97978C60.9038 9.77603 61.0705 9.42294 61.1524 8.92053H61.9989Z" fill="#003E21"/>
<path d="M68.9092 8.03713H66.1415V10.1975H69.3566V10.8548H65.2994V4.75889H69.3127V5.4204H66.1415V7.3798H68.9092V8.03713Z" fill="#003E21"/>
<path fill-rule="evenodd" clip-rule="evenodd" d="M73.3939 10.8548V8.46836H74.8984C75.6206 8.46836 76.1747 8.30927 76.5607 7.99107C76.9496 7.67009 77.1441 7.21373 77.1441 6.622C77.1441 6.06098 76.9452 5.6102 76.5475 5.26968C76.1528 4.92915 75.606 4.75889 74.9071 4.75889H72.5518V10.8548H73.3939ZM74.9071 7.81104H73.3939V5.4204H74.9554C75.3735 5.42877 75.7025 5.54182 75.9423 5.75953C76.182 5.97724 76.3019 6.26752 76.3019 6.63037C76.3019 7.01277 76.182 7.30584 75.9423 7.50959C75.7025 7.71056 75.3574 7.81104 74.9071 7.81104Z" fill="#003E21"/>
<path fill-rule="evenodd" clip-rule="evenodd" d="M80.3656 10.8548V4.75889H82.4534C83.1464 4.75889 83.6669 4.89566 84.0149 5.1692C84.3657 5.44273 84.5412 5.84745 84.5412 6.38336C84.5412 6.66806 84.4564 6.92066 84.2868 7.14116C84.1172 7.35887 83.8862 7.52774 83.5938 7.64776C83.9388 7.73987 84.2108 7.91571 84.4096 8.17529C84.6114 8.43208 84.7122 8.73911 84.7122 9.09638C84.7122 9.64345 84.5266 10.0733 84.1552 10.3859C83.7839 10.6985 83.259 10.8548 82.5806 10.8548H80.3656ZM81.2077 8.00363V10.1975H82.5981C82.99 10.1975 83.2984 10.1012 83.5236 9.90861C83.7517 9.71323 83.8657 9.44527 83.8657 9.10475C83.8657 8.37067 83.4476 8.00363 82.6113 8.00363H81.2077ZM81.2077 7.35887H82.4797C82.8481 7.35887 83.142 7.27095 83.3613 7.0951C83.5835 6.91926 83.6947 6.68062 83.6947 6.37917C83.6947 6.04423 83.5923 5.8014 83.3876 5.65067C83.1829 5.49716 82.8715 5.4204 82.4534 5.4204H81.2077V7.35887Z" fill="#003E21"/>
<path d="M92.9778 4.75889H92.1357L88.9908 9.45644V4.75889H88.1443V10.8548H88.9908L92.1357 6.15727V10.8548H92.9778V4.75889Z" fill="#003E21"/>
<path d="M101.357 8.92053C101.279 9.56529 101.029 10.0635 100.607 10.4152C100.189 10.7641 99.6322 10.9385 98.9363 10.9385C98.1819 10.9385 97.5766 10.6804 97.1204 10.164C96.6672 9.64763 96.4406 8.95682 96.4406 8.09155V7.50541C96.4406 6.9388 96.5458 6.44057 96.7564 6.01073C96.9699 5.58089 97.271 5.25153 97.6599 5.02266C98.0489 4.79099 98.4992 4.67516 99.0109 4.67516C99.6893 4.67516 100.233 4.85658 100.643 5.21944C101.052 5.5795 101.29 6.07912 101.357 6.7183H100.511C100.438 6.23263 100.278 5.88094 100.033 5.66323C99.7902 5.44552 99.4495 5.33667 99.0109 5.33667C98.4728 5.33667 98.0503 5.52647 97.7433 5.90607C97.4392 6.28566 97.2871 6.82576 97.2871 7.52634V8.11667C97.2871 8.77818 97.4319 9.30432 97.7213 9.69508C98.0108 10.0858 98.4158 10.2812 98.9363 10.2812C99.4042 10.2812 99.7624 10.1807 100.011 9.97978C100.262 9.77603 100.429 9.42294 100.511 8.92053H101.357Z" fill="#003E21"/>
<path d="M108.72 10.8548H109.566V4.75889H108.72V7.3798H105.5V4.75889H104.658V10.8548H105.5V8.03713H108.72V10.8548Z" fill="#003E21"/>
<path fill-rule="evenodd" clip-rule="evenodd" d="M114.09 7.24583H115.678C116.345 7.2542 116.865 7.41749 117.239 7.73568C117.614 8.05387 117.801 8.4865 117.801 9.03357C117.801 9.58344 117.612 10.0216 117.235 10.3482C116.858 10.6748 116.343 10.8437 115.691 10.8548H113.248V4.75889H114.09V7.24583ZM114.09 7.90734V10.1975H115.63C116.048 10.1975 116.373 10.0914 116.604 9.8793C116.837 9.66717 116.954 9.38247 116.954 9.0252C116.954 8.68189 116.842 8.41114 116.617 8.21297C116.394 8.0148 116.077 7.91292 115.665 7.90734H114.09Z" fill="#003E21"/>
<path d="M119.415 10.8548H118.573V4.75889H119.415V10.8548Z" fill="#003E21"/>
<path d="M136.08 4.75889H136.926V10.1975H140.076V4.75889H140.918V10.1807H141.589L141.51 12.3244H140.751V10.8548H136.08V4.75889Z" fill="#003E21"/>
<path d="M145.613 8.03713H148.381V7.3798H145.613V5.4204H148.784V4.75889H144.771V10.8548H148.828V10.1975H145.613V8.03713Z" fill="#003E21"/>
<path d="M156.931 10.8548H156.085V8.03713H152.865V10.8548H152.023V4.75889H152.865V7.3798H156.085V4.75889H156.931V10.8548Z" fill="#003E21"/>
<path d="M162.802 5.4204H164.855V4.75889H159.916V5.4204H161.964V10.8548H162.802V5.4204Z" fill="#003E21"/>
<path fill-rule="evenodd" clip-rule="evenodd" d="M168.791 8.46836V10.8548H167.949V4.75889H170.305C171.003 4.75889 171.55 4.92915 171.945 5.26968C172.343 5.6102 172.541 6.06098 172.541 6.622C172.541 7.21373 172.347 7.67009 171.958 7.99107C171.572 8.30927 171.018 8.46836 170.296 8.46836H168.791ZM168.791 7.81104H170.305C170.755 7.81104 171.1 7.71056 171.34 7.50959C171.579 7.30584 171.699 7.01277 171.699 6.63037C171.699 6.26752 171.579 5.97724 171.34 5.75953C171.1 5.54182 170.771 5.42877 170.353 5.4204H168.791V7.81104Z" fill="#003E21"/>
</svg>
